<svg width="41" height="32" viewBox="0 0 41 32" fill="none" xmlns="http://www.w3.org/2000/svg">
<path d="M14.5 16C18.875 16 22.5 12.4375 22.5 8C22.5 3.625 18.875 0 14.5 0C10.0625 0 6.5 3.625 6.5 8C6.5 12.4375 10.0625 16 14.5 16ZM20.5 20C20.5 19.3125 20.6875 18.6875 21 18.125C20.6875 18.0625 20.375 18 20.0625 18H19C17.625 18.6875 16.125 19 14.5 19C12.875 19 11.3125 18.6875 9.9375 18H8.875C4.25 18.0625 0.5 21.8125 0.5 26.4375V29C0.5 30.6875 1.8125 32 3.5 32H21C20.6875 31.4375 20.5 30.75 20.5 30V20ZM38.5 18H36.5V13C36.5 10.25 34.25 8 31.5 8C28.6875 8 26.5 10.25 26.5 13V18H24.5C23.375 18 22.5 18.9375 22.5 20V30C22.5 31.125 23.375 32 24.5 32H38.5C39.5625 32 40.5 31.125 40.5 30V20C40.5 18.9375 39.5625 18 38.5 18ZM31.5 27C30.375 27 29.5 26.125 29.5 25C29.5 23.9375 30.375 23 31.5 23C32.5625 23 33.5 23.9375 33.5 25C33.5 26.125 32.5625 27 31.5 27ZM33.5 18H29.5V13C29.5 11.9375 30.375 11 31.5 11C32.5625 11 33.5 11.9375 33.5 13V18Z" fill="#DF01A1"/>
</svg>
